<?xml version="1.0" encoding="UTF-8" standalone="no"?><svg width="2em" height="2em" viewBox="0 0 60 60" xmlns="http://www.w3.org/2000/svg"><path d="M52.949 49.104c-5.475 6.583-13.726 10.774-22.957 10.774C13.51 59.878.148 46.516.148 30.032c0-15.57 11.92-28.355 27.13-29.725v4.546C14.569 6.218 4.67 16.981 4.67 30.055c0 14 11.348 25.349 25.346 25.349 7.708 0 14.612-3.441 19.26-8.871l3.673 2.571z" fill="#003F62"/><path d="M56.026 44.634a29.713 29.713 0 0 0 3.81-14.602c0-15.57-11.92-28.355-27.131-29.725v4.541c12.734 1.343 22.657 12.116 22.657 25.207 0 4.343-1.092 8.43-3.016 12.002l3.68 2.577z" fill="#009FDA"/></svg>